<svg width="70" height="70" viewBox="0 0 70 70" xmlns="http://www.w3.org/2000/svg"><title>E3AF37FC-3DCA-4738-B8CC-307BC71FD20D</title><g fill-rule="nonzero" fill="#FFF"><path d="M17.077 36.128C7.756 36.128.2 43.706.2 53.054c0 9.348 7.557 16.926 16.878 16.926 9.322 0 16.878-7.578 16.878-16.926 0-9.348-7.556-16.926-16.878-16.926zm0 28.732c-6.498 0-11.766-5.283-11.766-11.8s5.268-11.8 11.766-11.8c6.499 0 11.767 5.283 11.767 11.8-.011 6.512-5.273 11.789-11.767 11.8zM53.122.022c-9.321 0-16.878 7.578-16.878 16.926 0 9.348 7.557 16.926 16.878 16.926C62.444 33.874 70 26.296 70 16.948 70 7.6 62.444.022 53.122.022zm0 28.732c-6.498 0-11.766-5.283-11.766-11.8s5.268-11.8 11.766-11.8c6.499 0 11.767 5.283 11.767 11.8-.011 6.512-5.273 11.789-11.767 11.8zM17.077.022C9.042.017 2.116 5.692.518 13.59c-1.597 7.897 2.577 15.83 9.979 18.966 7.402 3.135 15.983.605 20.514-6.05 4.532-6.655 3.76-15.59-1.846-21.364h4.786V.022H17.077zm11.767 16.926c0 6.517-5.268 11.8-11.767 11.8-6.498 0-11.766-5.283-11.766-11.8s5.268-11.8 11.766-11.8c6.496.008 11.762 5.285 11.773 11.8h-.006z"/></g></svg>